# xmcd
#
# Track frame offsets:
#	150
#	16915
#	31551
#	51364
#	76619
#	98124
#	116755
#	136508
#	155761
#	167355
#
# Disc length: 2582 seconds
#
# Revision: 1
# Processed by: cddbd v1.5.2PL0 Copyright (c) Steve Scherf et al.
# Submitted via: audiograbber 1.83.01
#
DISCID=660a140a
DTITLE=Delta Blues Band - Ungewöhnlich gewöhnlich
DYEAR=1981
DGENRE=Blues
TTITLE0=Was soll's - Ein Blues
TTITLE1=Ungewöhnlich gewöhnlich
TTITLE2=Funky City Blues
TTITLE3=Amerika Blues
TTITLE4=Einer für die Inseln
TTITLE5=Ruf die Firma an
TTITLE6=Miese Zeiten
TTITLE7=Dampfwalze
TTITLE8=Kein Mensch geht hin
TTITLE9=Blues vom Blues
EXTD=
EXTT0=
EXTT1=
EXTT2=
EXTT3=
EXTT4=
EXTT5=
EXTT6=
EXTT7=
EXTT8=
EXTT9=
PLAYORDER=
